{"title":"Dil Dhadakne Do (2015) Pre DvD Rip - XviD - [1CD] - Team IcTv Ex","uid":11993969,"size":732590712,"categoryP":"video","categoryS":"movies","magnet":"?xt=urn:btih:c05e4512c6401ecc16b881fb32d3fa2bb43e87b2&amp;dn=Dil+Dhadakne+Do+%282015%29+Pre+DvD+Rip+-+XviD+-+%5B1CD%5D+-+Team+IcTv+Ex&amp;tr=udp%3A%2F%2Ftracker.openbittorrent.com%3A80&amp;tr=udp%3A%2F%2Fopen.demonii.com%3A1337&amp;tr=udp%3A%2F%2Ftracker.coppersurfer.tk%3A6969&amp;tr=udp%3A%2F%2Fexodus.desync.com%3A6969","seeders":5,"leechers":1,"uploader":"SS132203","files":3,"time":1433591703,"description":"Dil Dhadakne Do (2015) Pre DvD Rip - XviD - [1CD] - Team IcTv Exclusive\n &lt;a href=&quot;\nhttp://imgsparrow.co/image/47&quot; rel=&quot;nofollow&quot; target=&quot;_NEW&quot;&gt;\nhttp://imgsparrow.co/image/47&lt;/a&gt;\n &lt;a href=&quot;\nhttp://imgsparrow.co/image/q5&quot; rel=&quot;nofollow&quot; target=&quot;_NEW&quot;&gt;\nhttp://imgsparrow.co/image/q5&lt;/a&gt;\n\nInfo : - \n\nAll Credit Goes To Intellect Clever &amp; IcTv\nSample Within Torrent\n\nMovie Info\nBanner : Junglee Pictures\nYear : 2015\nCast : Anil Kapoor, Shefali Shah, Priyanka ..\nVideo: XviD\nAudio : MP3\nGenre : Comedy/Drama\nSubtitles :nope\nResolution : 640 x 272\nRuntime : 2hr 42min XX\nSource : Team IcTv\n\nFormat : AVI\nFormat/Info : Audio Video Interleave\nFile size : 691 MiB\nDuration : 2h 42mn\nOverall bit rate : 595 Kbps\n\nVideo\nID : 0\nFormat : MPEG-4 Visual\nFormat profile : Advanced Simple@L5\nFormat settings, BVOP : 2\nFormat settings, QPel : No\nFormat settings, GMC : No warppoints\nFormat settings, Matrix : Default (H.263)\nCodec ID : XVID\nCodec ID/Hint : XviD\nDuration : 2h 42mn\nBit rate : 460 Kbps\nWidth : 640 pixels\nHeight : 272 pixels\nDisplay aspect ratio : 2.35:1\nFrame rate : 25.000 fps\nColor space : YUV\nChroma subsampling : 4:2:0\nBit depth : 8 bits\nScan type : Progressive\nCompression mode : Lossy\nBits/(Pixel*Frame) : 0.106\nStream size : 535 MiB (77%)\n\nAudio\nID : 1\nFormat : MPEG Audio\nFormat version : Version 1\nFormat profile : Layer 3\nMode : Joint stereo\nMode extension : MS Stereo\nCodec ID : 55\nCodec ID/Hint : MP3\nDuration : 2h 42mn\nBit rate mode : Constant\nBit rate : 128 Kbps\nChannel(s) : 2 channels\nSampling rate : 48.0 KHz\nCompression mode : Lossy\nStream size : 149 MiB (22%)\n\nScreens : - \n &lt;a href=&quot;\nhttp://imgsparrow.co/image/zD&quot; rel=&quot;nofollow&quot; target=&quot;_NEW&quot;&gt;\nhttp://imgsparrow.co/image/zD&lt;/a&gt; &lt;a href=&quot;\nhttp://imgsparrow.co/image/zG&quot; rel=&quot;nofollow&quot; target=&quot;_NEW&quot;&gt;\nhttp://imgsparrow.co/image/zG&lt;/a&gt; &lt;a href=&quot;\nhttp://imgsparrow.co/image/ze&quot; rel=&quot;nofollow&quot; target=&quot;_NEW&quot;&gt;\nhttp://imgsparrow.co/image/ze&lt;/a&gt; &lt;a href=&quot;\nhttp://imgsparrow.co/image/zg&quot; rel=&quot;nofollow&quot; target=&quot;_NEW&quot;&gt;\nhttp://imgsparrow.co/image/zg&lt;/a&gt; &lt;a href=&quot;\nhttp://imgsparrow.co/image/zq&quot; rel=&quot;nofollow&quot; target=&quot;_NEW&quot;&gt;\nhttp://imgsparrow.co/image/zq&lt;/a&gt; &lt;a href=&quot;\nhttp://imgsparrow.co/image/zz&quot; rel=&quot;nofollow&quot; target=&quot;_NEW&quot;&gt;\nhttp://imgsparrow.co/image/zz&lt;/a&gt; &lt;a href=&quot;\nhttp://imgsparrow.co/image/z7&quot; rel=&quot;nofollow&quot; target=&quot;_NEW&quot;&gt;\nhttp://imgsparrow.co/image/z7&lt;/a&gt; &lt;a href=&quot;\nhttp://imgsparrow.co/image/zk&quot; rel=&quot;nofollow&quot; target=&quot;_NEW&quot;&gt;\nhttp://imgsparrow.co/image/zk&lt;/a&gt; &lt;a href=&quot;\nhttp://imgsparrow.co/image/zn&quot; rel=&quot;nofollow&quot; target=&quot;_NEW&quot;&gt;\nhttp://imgsparrow.co/image/zn&lt;/a&gt; &lt;a href=&quot;\nhttp://imgsparrow.co/image/zy&quot; rel=&quot;nofollow&quot; target=&quot;_NEW&quot;&gt;\nhttp://imgsparrow.co/image/zy&lt;/a&gt;\n &lt;a href=&quot;\nhttp://imgsparrow.co/image/N2&quot; rel=&quot;nofollow&quot; target=&quot;_NEW&quot;&gt;\nhttp://imgsparrow.co/image/N2&lt;/a&gt;","torrent":{"xt":"urn:btih:c05e4512c6401ecc16b881fb32d3fa2bb43e87b2","amp;dn":"Dil+Dhadakne+Do+%282015%29+Pre+DvD+Rip+-+XviD+-+%5B1CD%5D+-+Team+IcTv+Ex","amp;tr":["udp%3A%2F%2Ftracker.openbittorrent.com%3A80","udp%3A%2F%2Fopen.demonii.com%3A1337","udp%3A%2F%2Ftracker.coppersurfer.tk%3A6969","udp%3A%2F%2Fexodus.desync.com%3A6969"],"infoHash":"c05e4512c6401ecc16b881fb32d3fa2bb43e87b2","infoHashBuffer":{"type":"Buffer","data":[192,94,69,18,198,64,30,204,22,184,129,251,50,211,250,43,180,62,135,178]},"announce":[],"urlList":[]}}